<svg width="21" height="21" viewBox="0 0 21 21" fill="none" xmlns="http://www.w3.org/2000/svg">
<g clip-path="url(#clip0_8622_3079)">
<path d="M10.5 0.000244141C4.71027 0.000244141 0 4.71052 0 10.5002C0 16.2899 4.71027 21.0002 10.5 21.0002C16.2896 21.0002 20.9999 16.2899 20.9999 10.5002C20.9999 4.71048 16.2896 0.000244141 10.5 0.000244141ZM10.5 19.6877C5.434 19.6877 1.3125 15.5662 1.3125 10.5002C1.3125 5.43424 5.434 1.31274 10.5 1.31274C15.5659 1.31274 19.6874 5.4342 19.6874 10.5002C19.6874 15.5662 15.5659 19.6877 10.5 19.6877ZM16.3242 10.5002C16.3242 10.8627 16.0303 11.1565 15.6679 11.1565H11.1562V15.6682C11.1562 16.0306 10.8624 16.3244 10.5 16.3244C10.1375 16.3244 9.84371 16.0306 9.84371 15.6682V11.1565H5.33199C4.96958 11.1565 4.67574 10.8627 4.67574 10.5002C4.67574 10.1377 4.96958 9.84395 5.33199 9.84395H9.84371V5.33223C9.84371 4.96978 10.1375 4.67598 10.5 4.67598C10.8624 4.67598 11.1562 4.96978 11.1562 5.33223V9.84395H15.6679C16.0303 9.84395 16.3242 10.1378 16.3242 10.5002Z" fill="#7F12DD"/>
</g>
<defs>
<clipPath id="clip0_8622_3079">
<rect width="21" height="21" fill="white"/>
</clipPath>
</defs>
</svg>
