<svg width="19" height="13" viewBox="0 0 19 13" fill="none" xmlns="http://www.w3.org/2000/svg">
<path d="M0.25223 7.08442L6.28448 12.7719C6.44701 12.9199 6.66469 13.0018 6.89064 13C7.11659 12.9981 7.33273 12.9127 7.4925 12.762C7.65228 12.6114 7.74291 12.4076 7.74487 12.1946C7.74683 11.9815 7.65998 11.7763 7.503 11.623L2.94175 7.32248H18.0965C18.3251 7.32248 18.5442 7.23688 18.7059 7.08451C18.8675 6.93214 18.9583 6.72547 18.9583 6.50998C18.9583 6.2945 18.8675 6.08783 18.7059 5.93546C18.5442 5.78309 18.3251 5.69748 18.0965 5.69748H2.94175L7.503 1.39692C7.58531 1.32197 7.65096 1.23232 7.69612 1.13319C7.74128 1.03406 7.76506 0.927443 7.76605 0.81956C7.76705 0.711677 7.74524 0.604688 7.70191 0.504835C7.65858 0.404982 7.59459 0.314263 7.51368 0.237976C7.43277 0.161688 7.33655 0.101357 7.23065 0.060503C7.12474 0.0196505 7.01127 -0.000906944 6.89684 3.05176e-05C6.78242 0.000967979 6.66934 0.0233822 6.56421 0.0659647C6.45907 0.108547 6.36398 0.170444 6.28448 0.248046L0.25223 5.93555C0.0906773 6.08791 -7.82013e-05 6.29454 -7.82013e-05 6.50998C-7.82013e-05 6.72543 0.0906773 6.93205 0.25223 7.08442Z" fill="#7F12DD"/>
</svg>
