<svg width="20" height="20" viewBox="0 0 20 20" fill="none" xmlns="http://www.w3.org/2000/svg">
<path d="M10 20C15.5228 20 20 15.5228 20 10C20 4.47715 15.5228 0 10 0C4.47715 0 0 4.47715 0 10C0 15.5228 4.47715 20 10 20Z" fill="white"/>
<path fill-rule="evenodd" clip-rule="evenodd" d="M6.87747 14.877L3.22015 10.9626C2.71944 10.4267 2.74818 9.57886 3.28409 9.07815C3.81999 8.57744 4.66786 8.60626 5.16857 9.14209L7.98968 12.1615L12.4551 7.98925C12.4953 7.95169 12.5372 7.91729 12.5806 7.88563L14.6805 5.92366C15.2164 5.42296 16.0644 5.45177 16.565 5.98768C17.0657 6.52351 17.0369 7.37146 16.5011 7.87217L10.0874 13.8647L10.0805 13.8574L7.86196 15.9303L6.87747 14.877Z" fill="#00BA00"/>
</svg>
