<svg width="15" height="15" viewBox="0 0 15 15" fill="none" xmlns="http://www.w3.org/2000/svg">
<path d="M7.50312 14.9999C7.29037 15.0012 7.08208 14.939 6.90479 14.8214C6.7275 14.7038 6.58925 14.536 6.50766 14.3396C6.42608 14.1431 6.40486 13.9267 6.44671 13.7181C6.48855 13.5095 6.59158 13.3181 6.74263 13.1683L12.4195 7.50213L6.74263 1.83594C6.56716 1.63104 6.47546 1.36746 6.48588 1.09789C6.49629 0.828313 6.60804 0.572596 6.7988 0.381837C6.98956 0.191078 7.24527 0.0793265 7.51485 0.0689141C7.78442 0.0585016 8.048 0.150195 8.2529 0.325672L14.6796 6.75235C14.8791 6.95304 14.9911 7.22451 14.9911 7.50748C14.9911 7.79046 14.8791 8.06193 14.6796 8.26262L8.2529 14.6893C8.0534 14.8872 7.78412 14.9987 7.50312 14.9999Z" fill="black"/>
<path d="M1.07734 15C0.864593 15.0012 0.656295 14.9391 0.479004 14.8214C0.301714 14.7038 0.163464 14.5361 0.0818811 14.3396C0.000297893 14.1431 -0.0209225 13.9268 0.0209256 13.7182C0.0627736 13.5096 0.165794 13.3182 0.316852 13.1684L5.99375 7.50217L0.316852 1.83599C0.115158 1.63429 0.00184663 1.36073 0.00184663 1.0755C0.00184663 0.790257 0.115158 0.5167 0.316852 0.315005C0.518547 0.113311 0.792103 2.1252e-09 1.07734 0C1.36258 -2.1252e-09 1.63614 0.113311 1.83783 0.315005L8.26451 6.74168C8.46401 6.94237 8.57598 7.21385 8.57598 7.49682C8.57598 7.77979 8.46401 8.05127 8.26451 8.25195L1.83783 14.6786C1.73863 14.7798 1.62033 14.8604 1.48979 14.9155C1.35925 14.9707 1.21906 14.9994 1.07734 15Z" fill="black"/>
</svg>
