<svg width="40" height="40" viewBox="0 0 40 40" fill="none" xmlns="http://www.w3.org/2000/svg">
<circle cx="20" cy="20" r="20" fill="url(#paint0_linear_8661_59)"/>
<path d="M20.5 10.2805L10 16.5533V26.1542C10 27.5685 11.1508 28.7193 12.5651 28.7193H28.4349C29.8492 28.7193 31 27.5685 31 26.1542V16.5533L20.5 10.2805ZM28.3019 16.8905L20.6021 21.6916L20.5622 21.7131C20.5558 21.7165 20.5496 21.7195 20.541 21.7229L20.5318 21.7251C20.51 21.7304 20.4997 21.7307 20.4997 21.7307C20.4997 21.7307 20.4894 21.7304 20.4623 21.724L20.4576 21.7229C20.4506 21.7201 20.4431 21.7165 20.4331 21.7114C20.4222 21.7053 20.411 21.6992 20.3999 21.6933L12.6984 16.8905L20.5 12.2297L28.3019 16.8905ZM28.4349 27.0461H12.5651C12.0734 27.0461 11.6734 26.6461 11.6734 26.1547V18.2234L19.5355 23.1258C19.5643 23.1439 19.5933 23.1601 19.6237 23.1757C19.6401 23.1846 19.6563 23.1933 19.6716 23.2008C19.7938 23.2638 19.9182 23.3118 20.0356 23.3425L20.1003 23.3578C20.2359 23.3885 20.37 23.4041 20.5008 23.4041C20.6308 23.4041 20.7658 23.3882 20.9022 23.357L20.958 23.3442C21.0815 23.3121 21.2062 23.2638 21.3258 23.2019C21.3431 23.1933 21.3601 23.1844 21.378 23.1746L29.3266 18.2226V26.1542C29.3266 26.6461 28.9266 27.0461 28.4349 27.0461Z" fill="white"/>
<defs>
<linearGradient id="paint0_linear_8661_59" x1="-2.6077e-07" y1="20" x2="40" y2="20" gradientUnits="userSpaceOnUse">
<stop stop-color="#3E0269"/>
<stop offset="1" stop-color="#7F12DD"/>
</linearGradient>
</defs>
</svg>
