<svg width="50" height="50" viewBox="0 0 50 50" fill="none" xmlns="http://www.w3.org/2000/svg">
<circle cx="25" cy="25" r="25" fill="#F6F6F6"/>
<path d="M37.7338 34.9997H11.3262C10.0414 34.9997 9 33.9583 9 32.6736V16.9762C9 15.6915 10.0414 14.65 11.3262 14.65H37.7338C39.0185 14.65 40.06 15.6914 40.06 16.9762V32.6736C40.06 33.9583 39.0185 34.9997 37.7338 34.9997Z" fill="#41479B"/>
<path d="M40.0278 33.0583C39.8444 34.1599 38.8874 35 37.7338 35H37.1286L27.2076 28.5V34.9999H21.8524V28.5L11.9314 34.9999H11.3262C10.1725 34.9999 9.21554 34.1599 9.03221 33.0583L17.5117 27.5027H9V22.1475H17.5117L9.03221 16.592C9.21554 15.4904 10.1725 14.6503 11.3262 14.6503H11.9314L21.8524 21.1503V14.6503H27.2076V21.1503L37.1286 14.6503H37.7338C38.8874 14.6503 39.8444 15.4903 40.0278 16.592L31.5483 22.1476H40.06V27.5028H31.5483L40.0278 33.0583Z" fill="#F5F5F5"/>
<path d="M26.1365 34.9997H22.9234V26.4315H9V23.2183H22.9234V14.6501H26.1365V23.2183H40.06V26.4315H26.1365V34.9997Z" fill="#FF4B55"/>
<path d="M10.504 14.8003L21.8229 22.1475H19.8557L9.55957 15.4641C9.81151 15.17 10.1353 14.9396 10.504 14.8003Z" fill="#FF4B55"/>
<path d="M30.0134 22.1475H28.0461L39.0091 15.0314C39.3159 15.2328 39.5719 15.505 39.7545 15.8245L30.0134 22.1475Z" fill="#FF4B55"/>
<path d="M9.24561 33.7139L18.8141 27.5027H20.7814L9.93875 34.541C9.64763 34.3243 9.4094 34.041 9.24561 33.7139Z" fill="#FF4B55"/>
<path d="M29.1742 27.5027L39.4892 34.1985C39.2345 34.4916 38.9082 34.7207 38.5369 34.8573L27.207 27.5027H29.1742Z" fill="#FF4B55"/>
</svg>
