<svg width="39" height="39" viewBox="0 0 39 39" fill="none" xmlns="http://www.w3.org/2000/svg">
<path fill-rule="evenodd" clip-rule="evenodd" d="M20.255 38.2998H20.243H20.273H20.255ZM20.316 38.2998H20.3H20.33H20.316ZM17.916 38.2998H17.943H17.918H17.892H17.916ZM20.376 38.2998H20.351H20.378H20.4H20.374H20.376ZM20.437 38.2998H20.43H20.459H20.439H20.437ZM17.837 38.2998H17.866H17.84H17.837ZM20.498 38.2998H20.482H20.51H20.498ZM20.559 38.2998H20.539H20.565H20.559ZM20.621 38.2938H20.615H20.638H20.621ZM20.682 38.2938H20.671H20.694H20.682ZM17.603 38.2938H17.626H17.6H17.603ZM20.743 38.2938H20.729H20.749H20.743ZM16.158 38.1268C11.3981 37.3739 7.09702 34.854 4.11297 31.0699C1.12891 27.2858 -0.318711 22.5157 0.0589207 17.7114C0.436553 12.9071 2.61168 8.42178 6.15031 5.15037C9.68894 1.87897 14.3309 0.0620117 19.15 0.0620117C23.9692 0.0620117 28.6111 1.87897 32.1498 5.15037C35.6884 8.42178 37.8635 12.9071 38.2411 17.7114C38.6188 22.5157 37.1712 27.2858 34.1871 31.0699C31.2031 34.854 26.902 37.3739 22.142 38.1268V24.6848H26.6L27.449 19.1498H22.142V15.5568C22.142 14.0428 22.884 12.5658 25.263 12.5658H27.678V7.85383C26.2597 7.62473 24.8266 7.49973 23.39 7.47983C19.016 7.47983 16.157 10.1308 16.157 14.9298V19.1488H11.3V24.6838H16.162L16.158 38.1268Z" fill="#3B5998"/>
</svg>
