<svg width="39" height="39" viewBox="0 0 39 39" fill="none" xmlns="http://www.w3.org/2000/svg">
<path d="M19.15 0C22.9375 0 26.64 1.12313 29.7892 3.22736C32.9384 5.33159 35.3929 8.32241 36.8423 11.8216C38.2917 15.3208 38.6709 19.1712 37.932 22.886C37.1931 26.6007 35.3693 30.0129 32.6911 32.6911C30.0129 35.3693 26.6007 37.1931 22.886 37.932C19.1712 38.6709 15.3208 38.2917 11.8216 36.8423C8.32241 35.3929 5.33159 32.9384 3.22736 29.7892C1.12313 26.64 0 22.9375 0 19.15C0.0147741 14.0756 2.0371 9.21335 5.62523 5.62523C9.21335 2.0371 14.0756 0.0147741 19.15 0Z" fill="#EC5248"/>
<path d="M24.775 7.18091H13.405C12.5707 7.1923 11.7469 7.369 10.9813 7.7008C10.2157 8.03259 9.52344 8.51289 8.94464 9.11392C8.36584 9.71494 7.91195 10.4248 7.60923 11.2023C7.3065 11.9799 7.16095 12.8097 7.18099 13.6439V24.6549C7.18709 26.3465 7.85359 27.9688 9.03845 29.176C10.2233 30.3833 11.8328 31.0801 13.524 31.1179H24.894C26.5915 31.1 28.2126 30.4095 29.4017 29.1979C30.5908 27.9862 31.2509 26.3525 31.237 24.6549V13.6439C31.2239 11.934 30.5389 10.2979 29.3299 9.08868C28.1209 7.87948 26.4849 7.19425 24.775 7.18091ZM28.964 24.5349C28.9653 25.1168 28.8517 25.6932 28.6296 26.231C28.4076 26.7688 28.0814 27.2575 27.67 27.6689C27.2586 28.0804 26.7699 28.4065 26.2321 28.6285C25.6942 28.8506 25.1179 28.9642 24.536 28.9629H13.644C13.0683 28.962 12.4986 28.846 11.9684 28.6217C11.4382 28.3973 10.9582 28.0692 10.5567 27.6566C10.1552 27.244 9.84027 26.7553 9.63046 26.2192C9.42064 25.6831 9.32019 25.1104 9.33499 24.5349V13.7639C9.32582 12.6073 9.77311 11.4936 10.5798 10.6647C11.3865 9.8357 12.4875 9.35825 13.644 9.33591H24.535C25.7036 9.35446 26.8191 9.82694 27.6455 10.6534C28.472 11.4798 28.9444 12.5953 28.963 13.7639L28.964 24.5349Z" fill="white"/>
<path d="M19.149 13.0451C17.5301 13.0134 15.9649 13.6261 14.7978 14.7484C13.6307 15.8707 12.9572 17.4107 12.9255 19.0296C12.8938 20.6485 13.5065 22.2137 14.6288 23.3808C15.7511 24.5479 17.2911 25.2214 18.91 25.2531C20.5268 25.2778 22.088 24.6629 23.2537 23.5422C24.4193 22.4215 25.0951 20.8857 25.134 19.2691V19.1451C25.1537 18.3484 25.0132 17.5558 24.7208 16.8144C24.4285 16.0729 23.9902 15.3978 23.4321 14.8289C22.8739 14.26 22.2072 13.8089 21.4715 13.5025C20.7357 13.1961 19.946 13.0406 19.149 13.0451ZM19.149 23.0981C18.1099 23.1002 17.1094 22.7045 16.3528 21.9923C15.5962 21.2801 15.1408 20.3054 15.08 19.2681C15.078 18.229 15.4736 17.2286 16.1858 16.4719C16.898 15.7153 17.8727 15.2599 18.91 15.1991C19.9551 15.176 20.9674 15.5646 21.7286 16.2811C22.4897 16.9976 22.9388 17.9845 22.979 19.0291V19.1451C22.9987 19.6592 22.9141 20.1719 22.7302 20.6524C22.5463 21.1329 22.2669 21.5711 21.909 21.9406C21.5511 22.3102 21.122 22.6033 20.6476 22.8024C20.1732 23.0015 19.6634 23.1025 19.149 23.0991V23.0981Z" fill="white"/>
<path d="M25.493 11.25C25.6746 11.2552 25.8534 11.2968 26.0186 11.3723C26.1839 11.4478 26.3323 11.5557 26.4551 11.6896C26.5779 11.8235 26.6726 11.9806 26.7336 12.1518C26.7945 12.323 26.8205 12.5046 26.81 12.686C26.8268 12.869 26.8052 13.0535 26.7466 13.2277C26.6881 13.4019 26.5938 13.5619 26.47 13.6977C26.3461 13.8334 26.1953 13.9418 26.0271 14.016C25.859 14.0902 25.6773 14.1285 25.4935 14.1285C25.3097 14.1285 25.128 14.0902 24.9599 14.016C24.7917 13.9418 24.6409 13.8334 24.5171 13.6977C24.3932 13.5619 24.299 13.4019 24.2404 13.2277C24.1819 13.0535 24.1603 12.869 24.177 12.686C24.1665 12.5047 24.1925 12.3231 24.2534 12.152C24.3143 11.9809 24.4089 11.8238 24.5316 11.6899C24.6543 11.556 24.8026 11.4481 24.9677 11.3725C25.1329 11.297 25.3115 11.2553 25.493 11.25Z" fill="white"/>
</svg>
