<svg width="21" height="14" viewBox="0 0 21 14" fill="none" xmlns="http://www.w3.org/2000/svg">
<path d="M0.272045 6.37062L6.76832 0.245623C6.94335 0.0862349 7.17777 -0.00196054 7.4211 3.30772e-05C7.66443 0.00202669 7.8972 0.0940497 8.06926 0.256282C8.24133 0.418514 8.33893 0.637975 8.34104 0.867397C8.34316 1.09682 8.24962 1.31785 8.08057 1.48287L3.16846 6.11425H19.489C19.7351 6.11425 19.9711 6.20644 20.1452 6.37053C20.3192 6.53462 20.417 6.75718 20.417 6.98925C20.417 7.22131 20.3192 7.44387 20.1452 7.60797C19.9711 7.77206 19.7351 7.86425 19.489 7.86425H3.16846L8.08057 12.4956C8.1692 12.5763 8.2399 12.6729 8.28854 12.7796C8.33718 12.8864 8.36278 13.0012 8.36385 13.1174C8.36492 13.2336 8.34144 13.3488 8.29478 13.4563C8.24812 13.5639 8.17921 13.6616 8.09207 13.7437C8.00493 13.8259 7.90132 13.8908 7.78726 13.9348C7.67321 13.9788 7.55101 14.001 7.42778 14C7.30456 13.999 7.18278 13.9748 7.06956 13.929C6.95633 13.8831 6.85393 13.8164 6.76832 13.7329L0.272045 7.60787C0.0980644 7.44379 0.000328064 7.22127 0.000328064 6.98925C0.000328064 6.75723 0.0980644 6.53471 0.272045 6.37062Z" fill="#52606D"/>
</svg>
