<svg xmlns="http://www.w3.org/2000/svg" width="22.854" height="15.998" viewBox="0 0 22.854 15.998">
  <path id="live" d="M17.472,18.187a1.143,1.143,0,0,1-.812-1.943,4.6,4.6,0,0,0,0-6.484,1.143,1.143,0,1,1,1.625-1.607,6.88,6.88,0,0,1,0,9.7,1.143,1.143,0,0,1-.812.336Zm-7.287-.33a1.143,1.143,0,0,0,.009-1.616,4.6,4.6,0,0,1,0-6.484A1.143,1.143,0,1,0,8.569,8.15a6.88,6.88,0,0,0,0,9.7,1.143,1.143,0,0,0,1.616.009Zm11.734,2.765a11.369,11.369,0,0,0,0-15.246,1.143,1.143,0,1,0-1.695,1.533,9.083,9.083,0,0,1,0,12.179,1.143,1.143,0,1,0,1.695,1.533ZM6.548,20.7a1.143,1.143,0,0,0,.081-1.613,9.083,9.083,0,0,1,0-12.179A1.143,1.143,0,0,0,4.934,5.376a11.369,11.369,0,0,0,0,15.246,1.143,1.143,0,0,0,1.613.08Zm6.879-9.417A1.714,1.714,0,1,0,15.141,13a1.714,1.714,0,0,0-1.714-1.714Z" transform="translate(-2 -5)" fill="#3e0269"/>
</svg>
