<svg width="22" height="28" viewBox="0 0 22 28" fill="none" xmlns="http://www.w3.org/2000/svg">
<path fill-rule="evenodd" clip-rule="evenodd" d="M11 0.5625C6.34625 0.5625 2.5625 4.38 2.5625 9.08875C2.5625 10.6838 3.265 12.6625 4.2875 14.6363C6.53875 18.9825 10.2887 23.36 10.2887 23.36C10.4662 23.5675 10.7262 23.6875 11 23.6875C11.2738 23.6875 11.5338 23.5675 11.7113 23.36C11.7113 23.36 15.4613 18.9825 17.7125 14.6363C18.735 12.6625 19.4375 10.6838 19.4375 9.08875C19.4375 4.38 15.6538 0.5625 11 0.5625ZM11 5.5625C9.1025 5.5625 7.5625 7.1025 7.5625 9C7.5625 10.8975 9.1025 12.4375 11 12.4375C12.8975 12.4375 14.4375 10.8975 14.4375 9C14.4375 7.1025 12.8975 5.5625 11 5.5625Z" fill="#414141"/>
<path fill-rule="evenodd" clip-rule="evenodd" d="M16.98 20.7213C17.9963 21.0263 18.8337 21.4038 19.4125 21.8463C19.7875 22.1313 20.0625 22.41 20.0625 22.75C20.0625 22.95 19.9487 23.1313 19.7887 23.3125C19.5238 23.6113 19.13 23.88 18.6425 24.13C16.92 25.0113 14.135 25.5625 11 25.5625C7.865 25.5625 5.08 25.0113 3.3575 24.13C2.87 23.88 2.47625 23.6113 2.21125 23.3125C2.05125 23.1313 1.9375 22.95 1.9375 22.75C1.9375 22.41 2.2125 22.1313 2.5875 21.8463C3.16625 21.4038 4.00375 21.0263 5.02 20.7213C5.515 20.5725 5.79625 20.0488 5.6475 19.5538C5.49875 19.0575 4.975 18.7763 4.48 18.925C2.9325 19.3913 1.73 20.03 1.0075 20.7363C0.3725 21.355 0.0625 22.0475 0.0625 22.75C0.0625 23.6275 0.55875 24.5025 1.5675 25.2325C3.3375 26.5125 6.8925 27.4375 11 27.4375C15.1075 27.4375 18.6625 26.5125 20.4325 25.2325C21.4412 24.5025 21.9375 23.6275 21.9375 22.75C21.9375 22.0475 21.6275 21.355 20.9925 20.7363C20.27 20.03 19.0675 19.3913 17.52 18.925C17.025 18.7763 16.5012 19.0575 16.3525 19.5538C16.2037 20.0488 16.485 20.5725 16.98 20.7213Z" fill="#414141"/>
</svg>
