<svg width="92" height="61" viewBox="0 0 92 61" fill="none" xmlns="http://www.w3.org/2000/svg">
<path d="M38.9117 26.9306C32.0941 17.6311 20.5553 17.4994 13.7359 23.6519C6.89311 29.8255 6.38514 40.4662 12.4485 47.2791C18.1854 53.7249 30.7092 55.996 38.9134 45.4641C38.9134 49.1478 38.8972 52.6325 38.9268 56.1168C38.9329 56.8297 38.4116 56.9726 37.9851 57.2436C23.7899 66.2413 4.41971 58.2718 0.661605 41.8805C0.218327 39.9657 -0.00365295 38.0062 4.54593e-05 36.0406C0.0279582 26.7851 0.00956705 17.5293 0.0155018 8.27355C0.0181756 4.16885 2.69675 0.905686 6.65455 0.0824972C7.79649 -0.154986 8.25712 0.0750501 8.23932 1.37066C8.17208 6.21016 8.20931 11.0512 8.20749 15.8917C8.20749 16.304 8.20749 16.7163 8.20749 17.0808C8.79613 17.3137 8.99407 16.9027 9.26139 16.6918C17.5295 10.1717 28.2916 9.37728 37.448 14.5527C38.5558 15.1789 38.9878 15.8752 38.9455 17.165C38.8434 20.2804 38.9124 23.4013 38.9124 26.9306" fill="#54007C"/>
<path d="M52.391 26.9306C59.2086 17.6311 70.7474 17.4994 77.567 23.6519C84.4099 29.8255 84.9178 40.4662 78.8542 47.2791C73.1174 53.7249 60.5936 55.996 52.3893 45.4641C52.3893 49.1478 52.4056 52.6325 52.3759 56.1168C52.3698 56.8297 52.8911 56.9726 53.3177 57.2436C67.5129 66.2413 86.883 58.2718 90.6412 41.8805C91.0845 39.9657 91.3065 38.0062 91.3028 36.0406C91.2748 26.7851 91.2933 17.5293 91.2873 8.27355C91.2846 4.16885 88.6061 0.905686 84.6483 0.0824972C83.5063 -0.154986 83.0457 0.0750501 83.0635 1.37066C83.1307 6.21016 83.0935 11.0512 83.0953 15.8917C83.0953 16.304 83.0953 16.7163 83.0953 17.0808C82.5067 17.3137 82.3088 16.9027 82.0414 16.6918C73.7733 10.1717 63.0112 9.37728 53.8548 14.5527C52.747 15.1789 52.315 15.8752 52.3573 17.165C52.4595 20.2804 52.3904 23.4013 52.3904 26.9306" fill="#54007C"/>
<path d="M41.5564 54.0981C41.5564 53.2983 41.5564 52.6212 41.5564 51.944C41.5513 37.8532 41.542 23.7624 41.5285 9.67161C41.5267 8.64125 41.518 8.03288 42.855 8.65641C45.11 9.70794 47.3887 9.34181 49.6749 8.19092C49.7048 8.6751 49.7396 8.97667 49.7397 9.27825C49.7413 18.5304 49.8391 27.784 49.7039 37.0341C49.6116 43.3466 47.1329 48.779 42.8071 53.3607C42.5245 53.66 42.2665 54.0311 41.5564 54.0979" fill="#BD6AF0"/>
<path d="M49.7474 54.0981C49.7474 53.2983 49.7474 52.6212 49.7474 51.944C49.7525 37.8532 49.7618 23.7624 49.7752 9.67161C49.7769 8.64125 49.7857 8.03288 48.4487 8.65641C46.1938 9.70794 43.9149 9.34181 41.6289 8.19092C41.599 8.6751 41.5641 8.97667 41.564 9.27825C41.5624 18.5304 41.4646 27.784 41.5998 37.0341C41.6921 43.3466 44.1708 48.779 48.4966 53.3607C48.7792 53.66 49.0372 54.0311 49.7473 54.0979" fill="#BD6AF0"/>
<path d="M45.7131 7.6656C43.2029 7.66841 41.6147 6.27781 41.6104 4.07336C41.6061 1.94124 43.226 0.475441 45.5725 0.488181C48.1474 0.502162 49.7108 1.82632 49.7369 4.01535C49.7633 6.22587 48.1794 7.66286 45.7131 7.6656Z" fill="#BD6AF0"/>
</svg>
