<svg width="280" height="186" viewBox="0 0 280 186" fill="none" xmlns="http://www.w3.org/2000/svg">
<path d="M119.287 82.1163C98.4994 53.7603 63.3154 53.3589 42.5219 72.1189C21.657 90.9433 20.1081 123.389 38.5965 144.162C56.0891 163.817 94.2764 170.742 119.293 138.628C119.293 149.86 119.243 160.486 119.334 171.11C119.352 173.284 117.763 173.72 116.462 174.546C73.1783 201.982 14.1152 177.681 2.65603 127.701C1.30439 121.863 0.627533 115.888 0.63881 109.894C0.723921 81.6726 0.667844 53.4501 0.68594 25.2276C0.694093 12.7116 8.86155 2.7616 20.9296 0.251549C24.4116 -0.472581 25.8161 0.228841 25.7618 4.17938C25.5568 18.9359 25.6703 33.6972 25.6648 48.4567C25.6648 49.7139 25.6648 50.9709 25.6648 52.0823C27.4597 52.7927 28.0632 51.5395 28.8783 50.8964C54.0892 31.0152 86.9048 28.593 114.824 44.3737C118.202 46.2831 119.52 48.4063 119.39 52.3393C119.079 61.8385 119.289 71.3547 119.289 82.1163" fill="white"/>
<path d="M160.389 82.1163C181.177 53.7603 216.361 53.3589 237.155 72.1189C258.02 90.9433 259.569 123.389 241.08 144.162C223.587 163.817 185.4 170.742 160.384 138.628C160.384 149.86 160.433 160.486 160.343 171.11C160.324 173.284 161.914 173.72 163.214 174.546C206.498 201.982 265.561 177.681 277.02 127.701C278.372 121.863 279.049 115.888 279.038 109.894C278.953 81.6726 279.009 53.4501 278.99 25.2276C278.982 12.7116 270.815 2.7616 258.747 0.251549C255.265 -0.472581 253.861 0.228841 253.915 4.17938C254.12 18.9359 254.006 33.6972 254.012 48.4567C254.012 49.7139 254.012 50.9709 254.012 52.0823C252.217 52.7927 251.613 51.5395 250.798 50.8964C225.587 31.0152 192.772 28.593 164.852 44.3737C161.474 46.2831 160.157 48.4063 160.286 52.3393C160.598 61.8385 160.387 71.3547 160.387 82.1163" fill="white"/>
<path d="M127.349 164.957C127.349 162.518 127.349 160.454 127.349 158.389C127.334 115.423 127.305 72.4579 127.264 29.4924C127.259 26.3507 127.232 24.4956 131.309 26.3969C138.185 29.6032 145.133 28.4868 152.104 24.9775C152.195 26.4539 152.301 27.3734 152.302 28.293C152.307 56.5044 152.605 84.7203 152.192 112.926C151.911 132.174 144.353 148.738 131.163 162.708C130.301 163.621 129.514 164.753 127.349 164.956" fill="#C9C9C9"/>
<path d="M152.325 164.957C152.325 162.518 152.325 160.454 152.325 158.389C152.341 115.423 152.369 72.4579 152.41 29.4924C152.415 26.3507 152.442 24.4956 148.365 26.3969C141.49 29.6032 134.541 28.4868 127.57 24.9775C127.479 26.4539 127.373 27.3734 127.372 28.293C127.368 56.5044 127.069 84.7203 127.482 112.926C127.763 132.174 135.321 148.738 148.511 162.708C149.373 163.621 150.16 164.753 152.325 164.956" fill="#C9C9C9"/>
<path d="M140.029 23.3679C132.375 23.3765 127.532 19.1363 127.519 12.4145C127.506 5.91331 132.445 1.44383 139.6 1.48267C147.451 1.5253 152.218 5.5629 152.298 12.2376C152.378 18.9779 147.549 23.3596 140.029 23.3679Z" fill="#C9C9C9"/>
</svg>
