<svg width="50" height="50" viewBox="0 0 50 50" fill="none" xmlns="http://www.w3.org/2000/svg">
<circle cx="25" cy="25" r="25" fill="#3E0269"/>
<path d="M36.0228 24.2807L28.5985 17.2807C28.3984 17.0986 28.1305 16.9978 27.8524 17C27.5744 17.0023 27.3083 17.1075 27.1117 17.2929C26.915 17.4783 26.8035 17.7291 26.8011 17.9913C26.7987 18.2535 26.9056 18.5061 27.0988 18.6947L32.7126 23.9877H14.0606C13.7793 23.9877 13.5096 24.0931 13.3106 24.2806C13.1117 24.4681 13 24.7225 13 24.9877C13 25.2529 13.1117 25.5073 13.3106 25.6948C13.5096 25.8824 13.7793 25.9877 14.0606 25.9877H32.7126L27.0988 31.2807C26.9975 31.373 26.9167 31.4833 26.8611 31.6053C26.8055 31.7273 26.7762 31.8585 26.775 31.9913C26.7738 32.1241 26.8006 32.2558 26.854 32.3787C26.9073 32.5016 26.986 32.6132 27.0856 32.7071C27.1852 32.801 27.3036 32.8753 27.434 32.9255C27.5643 32.9758 27.704 33.0011 27.8448 33C27.9856 32.9988 28.1248 32.9712 28.2542 32.9188C28.3836 32.8664 28.5006 32.7902 28.5985 32.6947L36.0228 25.6947C36.2216 25.5072 36.3333 25.2529 36.3333 24.9877C36.3333 24.7225 36.2216 24.4682 36.0228 24.2807Z" fill="white"/>
</svg>
