<svg width="19" height="13" viewBox="0 0 19 13" fill="none" xmlns="http://www.w3.org/2000/svg">
<path d="M18.706 5.91558L12.6738 0.228079C12.5112 0.0800753 12.2936 -0.0018205 12.0676 3.07145e-05C11.8417 0.00188193 11.6255 0.0873319 11.4657 0.237976C11.306 0.38862 11.2153 0.592405 11.2134 0.80544C11.2114 1.01847 11.2983 1.22371 11.4553 1.37695L16.0165 5.67752H0.861751C0.6332 5.67752 0.41401 5.76312 0.252401 5.91549C0.0907913 6.06786 0 6.27453 0 6.49002C0 6.7055 0.0907913 6.91217 0.252401 7.06454C0.41401 7.21691 0.6332 7.30252 0.861751 7.30252H16.0165L11.4553 11.6031C11.3729 11.678 11.3073 11.7677 11.2621 11.8668C11.217 11.9659 11.1932 12.0726 11.1922 12.1804C11.1912 12.2883 11.213 12.3953 11.2563 12.4952C11.2997 12.595 11.3637 12.6857 11.4446 12.762C11.5255 12.8383 11.6217 12.8986 11.7276 12.9395C11.8335 12.9803 11.947 13.0009 12.0614 13C12.1758 12.999 12.2889 12.9766 12.394 12.934C12.4992 12.8915 12.5943 12.8296 12.6738 12.752L18.706 7.06445C18.8676 6.91209 18.9583 6.70546 18.9583 6.49002C18.9583 6.27457 18.8676 6.06795 18.706 5.91558Z" fill="#7F12DD"/>
</svg>
