<svg width="26" height="26" viewBox="0 0 26 26" fill="none" xmlns="http://www.w3.org/2000/svg">
<path d="M10.8337 26C12.7957 26 14.437 24.6013 14.8139 22.75H6.85352C7.23061 24.6013 8.87187 26 10.8337 26Z" fill="black"/>
<path d="M19.0406 15.7039C19.0124 15.7039 18.9864 15.7083 18.9583 15.7083C14.1797 15.7083 10.2917 11.8203 10.2917 7.04173C10.2917 5.16421 10.8983 3.42992 11.9167 2.00844V1.08327C11.9167 0.484207 11.4313 0 10.8333 0C10.2354 0 9.75 0.484207 9.75 1.08327V2.25342C6.08066 2.78206 3.25 5.93784 3.25 9.75V12.7703C3.25 14.9142 2.31075 16.9379 0.662933 18.331C0.241608 18.6919 0 19.2161 0 19.7708C0 20.8163 0.850388 21.6667 1.89577 21.6667H19.7708C20.8163 21.6667 21.6667 20.8163 21.6667 19.7708C21.6667 19.2161 21.4251 18.6919 20.9929 18.3225C20.1391 17.5999 19.4806 16.7007 19.0406 15.7039Z" fill="black"/>
<path d="M18.958 0C15.0755 0 11.9165 3.15895 11.9165 7.04173C11.9165 10.9243 15.0755 14.0833 18.958 14.0833C22.8408 14.0833 25.9998 10.9243 25.9998 7.04173C25.9998 3.15895 22.8408 0 18.958 0ZM20.0415 9.47923C20.0415 9.92773 19.6775 10.2917 19.229 10.2917C18.7805 10.2917 18.4165 9.92773 18.4165 9.47923V5.95827H17.8748C17.4263 5.95827 17.0623 5.59427 17.0623 5.14577C17.0623 4.69727 17.4263 4.33327 17.8748 4.33327H19.229C19.6775 4.33327 20.0415 4.69727 20.0415 5.14577V9.47923Z" fill="black"/>
</svg>
