<svg width="40" height="40" viewBox="0 0 40 40" fill="none" xmlns="http://www.w3.org/2000/svg">
<circle cx="20" cy="20" r="20" fill="url(#paint0_linear_8661_60)"/>
<g clip-path="url(#clip0_8661_60)">
<path d="M25.8064 22.3893C25.397 21.963 24.9031 21.735 24.3797 21.735C23.8605 21.735 23.3624 21.9587 22.936 22.3851L21.6022 23.7147C21.4924 23.6556 21.3827 23.6008 21.2771 23.5459C21.1252 23.4699 20.9816 23.3981 20.8592 23.3222C19.6098 22.5286 18.4743 21.4944 17.3852 20.1563C16.8576 19.4894 16.503 18.928 16.2455 18.3581C16.5917 18.0415 16.9125 17.7123 17.2248 17.3957C17.343 17.2775 17.4612 17.1551 17.5794 17.0369C18.4658 16.1504 18.4658 15.0023 17.5794 14.1159L16.427 12.9635C16.2962 12.8326 16.1611 12.6976 16.0345 12.5625C15.7812 12.3008 15.5153 12.0306 15.2409 11.7774C14.8315 11.3721 14.3418 11.1568 13.8268 11.1568C13.3118 11.1568 12.8137 11.3721 12.3916 11.7774C12.3874 11.7816 12.3874 11.7816 12.3832 11.7858L10.948 13.2336C10.4077 13.774 10.0996 14.4324 10.032 15.1965C9.93071 16.429 10.2937 17.5772 10.5723 18.3286C11.2561 20.1732 12.2777 21.8828 13.8015 23.7147C15.6504 25.9224 17.8749 27.6657 20.416 28.8941C21.3869 29.3542 22.6828 29.8987 24.1306 29.9916C24.2193 29.9958 24.3121 30 24.3965 30C25.3716 30 26.1905 29.6496 26.8321 28.9532C26.8364 28.9447 26.8448 28.9405 26.849 28.9321C27.0685 28.6661 27.3218 28.4255 27.5877 28.168C27.7692 27.995 27.955 27.8135 28.1365 27.6235C28.5544 27.1887 28.7739 26.6822 28.7739 26.163C28.7739 25.6396 28.5501 25.1372 28.1238 24.7151L25.8064 22.3893ZM27.3176 26.8341C27.3134 26.8341 27.3134 26.8384 27.3176 26.8341C27.153 27.0114 26.9841 27.1718 26.8026 27.3491C26.5282 27.6108 26.2496 27.8852 25.9879 28.1934C25.5616 28.6492 25.0593 28.8645 24.4008 28.8645C24.3375 28.8645 24.2699 28.8645 24.2066 28.8603C22.9529 28.7801 21.7879 28.2904 20.9141 27.8725C18.5249 26.716 16.427 25.0739 14.6837 22.9929C13.2443 21.258 12.2819 19.654 11.6445 17.9318C11.2519 16.8807 11.1084 16.0618 11.1717 15.2893C11.2139 14.7955 11.4039 14.386 11.7542 14.0357L13.1936 12.5963C13.4005 12.4021 13.62 12.2966 13.8353 12.2966C14.1012 12.2966 14.3165 12.457 14.4515 12.592C14.4558 12.5963 14.46 12.6005 14.4642 12.6047C14.7217 12.8453 14.9665 13.0943 15.224 13.3603C15.3549 13.4954 15.4899 13.6304 15.625 13.7697L16.7774 14.9221C17.2248 15.3695 17.2248 15.7832 16.7774 16.2307C16.655 16.3531 16.5368 16.4755 16.4144 16.5937C16.0598 16.9567 15.7221 17.2944 15.3549 17.6236C15.3464 17.6321 15.338 17.6363 15.3338 17.6447C14.9707 18.0078 15.0383 18.3623 15.1143 18.6029C15.1185 18.6156 15.1227 18.6283 15.1269 18.6409C15.4266 19.367 15.8487 20.0508 16.4904 20.8655L16.4946 20.8697C17.6596 22.3049 18.888 23.4235 20.2429 24.2804C20.416 24.3901 20.5933 24.4788 20.7621 24.5632C20.9141 24.6392 21.0576 24.7109 21.18 24.7869C21.1969 24.7953 21.2138 24.808 21.2307 24.8164C21.3742 24.8882 21.5093 24.922 21.6486 24.922C21.9989 24.922 22.2184 24.7025 22.2902 24.6307L23.7338 23.1871C23.8773 23.0436 24.1053 22.8705 24.3712 22.8705C24.6329 22.8705 24.8482 23.0351 24.9791 23.1786C24.9833 23.1829 24.9833 23.1829 24.9875 23.1871L27.3134 25.5129C27.7481 25.9435 27.7481 26.3867 27.3176 26.8341Z" fill="white"/>
<path d="M20.8089 14.7575C21.9148 14.9432 22.9195 15.4666 23.7215 16.2686C24.5235 17.0707 25.0427 18.0753 25.2327 19.1812C25.2791 19.4598 25.5197 19.654 25.7941 19.654C25.8278 19.654 25.8574 19.6498 25.8912 19.6456C26.2035 19.5949 26.4104 19.2994 26.3597 18.9871C26.1318 17.649 25.4986 16.4291 24.5319 15.4624C23.5653 14.4958 22.3454 13.8626 21.0073 13.6347C20.6949 13.584 20.4037 13.7908 20.3488 14.099C20.2939 14.4071 20.4965 14.7068 20.8089 14.7575Z" fill="white"/>
<path d="M29.9766 18.8224C29.6009 16.619 28.5625 14.614 26.9669 13.0184C25.3714 11.4228 23.3663 10.3844 21.1629 10.0087C20.8547 9.95383 20.5635 10.1649 20.5086 10.473C20.4579 10.7854 20.6648 11.0767 20.9771 11.1315C22.9442 11.465 24.7382 12.3979 26.1649 13.8204C27.5917 15.2471 28.5203 17.0411 28.8538 19.0082C28.9002 19.2868 29.1408 19.4809 29.4152 19.4809C29.449 19.4809 29.4785 19.4767 29.5123 19.4725C29.8204 19.4261 30.0315 19.1306 29.9766 18.8224Z" fill="white"/>
</g>
<defs>
<linearGradient id="paint0_linear_8661_60" x1="-2.6077e-07" y1="20" x2="40" y2="20" gradientUnits="userSpaceOnUse">
<stop stop-color="#3E0269"/>
<stop offset="1" stop-color="#7F12DD"/>
</linearGradient>
<clipPath id="clip0_8661_60">
<rect width="20" height="20" fill="white" transform="translate(10 10)"/>
</clipPath>
</defs>
</svg>
