<svg xmlns="http://www.w3.org/2000/svg" width="13.663" height="15.998" viewBox="0 0 13.663 15.998">
  <g id="private" transform="translate(-37.355 -0.005)">
    <path id="Path_23219" data-name="Path 23219" d="M51.016,6.643a27.765,27.765,0,0,0-.36-3.992A1.248,1.248,0,0,0,50,2.064C48.129,1.337,46.286.643,44.488.05a.888.888,0,0,0-.561,0c-1.8.591-3.64,1.283-5.515,2.009a1.249,1.249,0,0,0-.6.5,17.011,17.011,0,0,0-.453,3.966,11.455,11.455,0,0,0,.289,3.548A5.662,5.662,0,0,0,38.669,11.9a13.221,13.221,0,0,0,2.2,2.113,18.416,18.416,0,0,0,2.943,1.893.9.9,0,0,0,.8,0,18.467,18.467,0,0,0,2.944-1.9,13.265,13.265,0,0,0,2.2-2.113,5.508,5.508,0,0,0,1.059-1.957,15.491,15.491,0,0,0,.208-3.3ZM44.949,8.435V9.89a.742.742,0,1,1-1.485,0V8.455a1.625,1.625,0,1,1,1.485-.021Z" fill="#3e0269"/>
  </g>
</svg>
