<svg width="56" height="56" viewBox="0 0 56 56" fill="none" xmlns="http://www.w3.org/2000/svg">
<circle cx="28" cy="28" r="28" fill="url(#paint0_linear_8676_45)"/>
<path d="M37.3152 35.7563L34.7107 33.1626C35.915 31.6283 36.5685 29.7336 36.5661 27.783C36.5661 26.0459 36.051 24.3478 35.0859 22.9034C34.1208 21.4591 32.749 20.3333 31.1442 19.6686C29.5393 19.0038 27.7733 18.8299 26.0696 19.1688C24.3658 19.5077 22.8008 20.3442 21.5725 21.5725C20.3442 22.8008 19.5077 24.3658 19.1688 26.0696C18.8299 27.7733 19.0038 29.5393 19.6686 31.1442C20.3333 32.749 21.4591 34.1208 22.9034 35.0859C24.3478 36.051 26.0459 36.5661 27.783 36.5661C29.7336 36.5685 31.6283 35.915 33.1626 34.7107L35.7563 37.3152C35.8583 37.4182 35.9797 37.4998 36.1135 37.5556C36.2473 37.6113 36.3908 37.64 36.5358 37.64C36.6807 37.64 36.8242 37.6113 36.958 37.5556C37.0918 37.4998 37.2132 37.4182 37.3152 37.3152C37.4182 37.2132 37.4998 37.0918 37.5556 36.958C37.6113 36.8242 37.64 36.6807 37.64 36.5358C37.64 36.3908 37.6113 36.2473 37.5556 36.1135C37.4998 35.9797 37.4182 35.8583 37.3152 35.7563ZM21.1958 27.783C21.1958 26.4802 21.5821 25.2066 22.3059 24.1233C23.0297 23.0401 24.0585 22.1958 25.2622 21.6972C26.4659 21.1986 27.7903 21.0682 29.0681 21.3223C30.346 21.5765 31.5197 22.2039 32.4409 23.1251C33.3622 24.0464 33.9896 25.2201 34.2437 26.4979C34.4979 27.7757 34.3675 29.1002 33.8689 30.3039C33.3703 31.5075 32.526 32.5363 31.4427 33.2602C30.3595 33.984 29.0859 34.3703 27.783 34.3703C26.036 34.3703 24.3605 33.6763 23.1251 32.4409C21.8898 31.2056 21.1958 29.5301 21.1958 27.783Z" fill="white"/>
<defs>
<linearGradient id="paint0_linear_8676_45" x1="-3.65078e-07" y1="28" x2="56" y2="28" gradientUnits="userSpaceOnUse">
<stop stop-color="#3E0269"/>
<stop offset="1" stop-color="#7F12DD"/>
</linearGradient>
</defs>
</svg>
