<svg width="39" height="39" viewBox="0 0 39 39" fill="none" xmlns="http://www.w3.org/2000/svg">
<path d="M19.15 0C24.2287 0.000530333 29.0993 2.01828 32.6905 5.60949C36.2817 9.2007 38.2995 14.0713 38.3 19.15C38.2995 24.2287 36.2817 29.0993 32.6905 32.6905C29.0993 36.2817 24.2287 38.2995 19.15 38.3C14.0713 38.2995 9.2007 36.2817 5.60949 32.6905C2.01828 29.0993 0.000530333 24.2287 0 19.15C0.000530333 14.0713 2.01828 9.2007 5.60949 5.60949C9.2007 2.01828 14.0713 0.000530333 19.15 0Z" fill="#1DA1F2"/>
<path d="M14.707 28.877C16.5457 28.8893 18.3685 28.5363 20.0696 27.8384C21.7707 27.1404 23.3162 26.1115 24.6164 24.8113C25.9165 23.5111 26.9455 21.9656 27.6434 20.2645C28.3413 18.5634 28.6944 16.7406 28.682 14.902C28.682 14.691 28.682 14.4769 28.667 14.2659C29.6286 13.5707 30.4586 12.7096 31.118 11.723C30.2225 12.1211 29.2722 12.382 28.299 12.497C29.3246 11.884 30.0923 10.9191 30.459 9.78194C29.4952 10.3538 28.4406 10.7566 27.341 10.973C26.6007 10.186 25.6217 9.66499 24.5555 9.49039C23.4893 9.31579 22.3952 9.49738 21.4426 10.0071C20.49 10.5167 19.7318 11.3261 19.2854 12.31C18.839 13.2938 18.7292 14.3974 18.973 15.45C17.0204 15.3516 15.1103 14.8439 13.3665 13.9598C11.6228 13.0757 10.0844 11.8349 8.851 10.318C8.2229 11.3992 8.03045 12.6792 8.31284 13.8974C8.59522 15.1155 9.33122 16.1803 10.371 16.8749C9.58966 16.8519 8.82527 16.6416 8.142 16.262V16.3239C8.14225 17.458 8.53486 18.557 9.2532 19.4344C9.97155 20.3119 10.9714 20.9138 12.083 21.1379C11.3597 21.3342 10.6011 21.3629 9.86501 21.222C10.1793 22.1976 10.7903 23.0508 11.6128 23.6624C12.4353 24.2741 13.4282 24.6138 14.453 24.6339C12.7142 26.0017 10.5653 26.7436 8.353 26.7399C7.9625 26.7405 7.57237 26.7162 7.185 26.6669C9.42608 28.1113 12.0368 28.8774 14.703 28.873" fill="white"/>
</svg>
