<svg width="40" height="40" viewBox="0 0 40 40" fill="none" xmlns="http://www.w3.org/2000/svg">
<circle cx="20" cy="20" r="20" fill="url(#paint0_linear_8661_58)"/>
<path d="M19.8429 17.5975C21.2988 17.5975 22.5593 17.0753 23.5895 16.0451C24.6194 15.015 25.1418 13.7546 25.1418 12.2986C25.1418 10.843 24.6196 9.58248 23.5894 8.55208C22.5591 7.52217 21.2986 7 19.8429 7C18.3868 7 17.1264 7.52217 16.0964 8.55224C15.0663 9.58232 14.5439 10.8428 14.5439 12.2986C14.5439 13.7546 15.0663 15.0152 16.0964 16.0452C17.1268 17.0751 18.3873 17.5975 19.8429 17.5975ZM17.0081 9.46382C17.7985 8.67343 18.7257 8.28923 19.8429 8.28923C20.9599 8.28923 21.8872 8.67343 22.6778 9.46382C23.4682 10.2544 23.8526 11.1817 23.8526 12.2986C23.8526 13.4158 23.4682 14.3429 22.6778 15.1335C21.8872 15.9241 20.9599 16.3083 19.8429 16.3083C18.726 16.3083 17.7988 15.9239 17.0081 15.1335C16.2175 14.3431 15.8332 13.4158 15.8332 12.2986C15.8332 11.1817 16.2175 10.2544 17.0081 9.46382Z" fill="white"/>
<path d="M29.1149 23.9169C29.0852 23.4882 29.0251 23.0206 28.9367 22.5268C28.8474 22.0293 28.7324 21.559 28.5948 21.1291C28.4524 20.6849 28.2592 20.2461 28.0201 19.8256C27.7721 19.3892 27.4808 19.0092 27.1538 18.6965C26.8119 18.3694 26.3933 18.1064 25.9092 17.9146C25.4268 17.7237 24.8922 17.627 24.3204 17.627C24.0958 17.627 23.8786 17.7192 23.4592 17.9923C23.201 18.1606 22.899 18.3553 22.562 18.5707C22.2738 18.7543 21.8834 18.9263 21.4012 19.0821C20.9307 19.2343 20.453 19.3115 19.9814 19.3115C19.5101 19.3115 19.0324 19.2343 18.5616 19.0821C18.0798 18.9265 17.6893 18.7545 17.4016 18.5708C17.0677 18.3575 16.7656 18.1628 16.5036 17.9921C16.0845 17.719 15.8673 17.6269 15.6427 17.6269C15.0707 17.6269 14.5363 17.7237 14.054 17.9147C13.5703 18.1062 13.1515 18.3692 12.8093 18.6967C12.4823 19.0096 12.1909 19.3894 11.9432 19.8256C11.7043 20.2461 11.511 20.6847 11.3687 21.1293C11.2312 21.5592 11.1162 22.0293 11.0269 22.5268C10.9383 23.0199 10.8784 23.4877 10.8487 23.9174C10.8195 24.3375 10.8047 24.7748 10.8047 25.2165C10.8047 26.3649 11.1698 27.2946 11.8896 27.9803C12.6006 28.6569 13.5413 29 14.6855 29H25.2786C26.4225 29 27.3631 28.6569 28.0743 27.9803C28.7943 27.2951 29.1594 26.3651 29.1594 25.2164C29.1592 24.7731 29.1443 24.3358 29.1149 23.9169ZM27.1853 27.0462C26.7155 27.4934 26.0918 27.7107 25.2784 27.7107H14.6855C13.8719 27.7107 13.2482 27.4934 12.7786 27.0464C12.3178 26.6078 12.0939 26.0091 12.0939 25.2165C12.0939 24.8043 12.1075 24.3973 12.1347 24.0065C12.1612 23.6232 12.2154 23.202 12.2958 22.7546C12.3752 22.3126 12.4763 21.8979 12.5965 21.5224C12.7118 21.1624 12.869 20.8059 13.0641 20.4625C13.2502 20.1352 13.4644 19.8544 13.7007 19.6281C13.9218 19.4164 14.2004 19.2432 14.5287 19.1133C14.8323 18.9931 15.1736 18.9273 15.544 18.9174C15.5892 18.9414 15.6696 18.9873 15.7998 19.0722C16.0648 19.2449 16.3703 19.442 16.708 19.6576C17.0887 19.9003 17.5791 20.1195 18.1651 20.3087C18.7641 20.5024 19.3751 20.6008 19.9815 20.6008C20.588 20.6008 21.1991 20.5024 21.7978 20.3089C22.3843 20.1194 22.8745 19.9003 23.2557 19.6573C23.6013 19.4364 23.8982 19.2451 24.1633 19.0722C24.2935 18.9874 24.3739 18.9414 24.4191 18.9174C24.7897 18.9273 25.1309 18.9931 25.4347 19.1133C25.7628 19.2432 26.0415 19.4166 26.2625 19.6281C26.4989 19.8542 26.713 20.135 26.8992 20.4626C27.0944 20.8059 27.2518 21.1625 27.367 21.5222C27.4873 21.8982 27.5885 22.3128 27.6677 22.7544C27.748 23.2027 27.8024 23.624 27.8289 24.0067V24.007C27.8562 24.3963 27.87 24.8031 27.8702 25.2165C27.87 26.0093 27.6461 26.6078 27.1853 27.0462Z" fill="white"/>
<defs>
<linearGradient id="paint0_linear_8661_58" x1="-2.6077e-07" y1="20" x2="40" y2="20" gradientUnits="userSpaceOnUse">
<stop stop-color="#3E0269"/>
<stop offset="1" stop-color="#7F12DD"/>
</linearGradient>
</defs>
</svg>
