<svg width="64" height="20" viewBox="0 0 64 20" fill="none" xmlns="http://www.w3.org/2000/svg">
<path d="M26.1205 0L22.913 19.9599H28.0398L31.2453 0H26.1205ZM41.5847 8.13055C39.7931 7.24583 38.6949 6.64871 38.6949 5.74383C38.7168 4.92109 39.6236 4.0782 41.6487 4.0782C43.3143 4.03636 44.5386 4.4278 45.4673 4.81726L45.9326 5.02492L46.6296 0.848803C45.6169 0.457368 44.0113 0.0260655 42.0281 0.0260655C36.9653 0.0260655 33.4003 2.65834 33.3782 6.42309C33.3363 9.20125 35.9305 10.7429 37.8719 11.6677C39.8551 12.6164 40.5302 13.2315 40.5302 14.0744C40.5083 15.3685 38.9266 15.9656 37.4507 15.9656C35.4057 15.9656 34.3071 15.6581 32.6395 14.937L31.9644 14.6294L31.2475 18.9694C32.4518 19.5047 34.6666 19.9759 36.9655 20C42.3459 20 45.8469 17.4076 45.891 13.3953C45.9085 11.1943 44.5405 9.50857 41.5847 8.13055ZM59.773 0.0617705H55.8065C54.5842 0.0617705 53.6555 0.41334 53.1263 1.6676L45.5109 19.9599H50.8913L52.3732 15.9996H58.3928L59.1616 19.9759H63.9071L59.773 0.0617705ZM53.8653 12.0028C53.9692 12.0129 55.9305 5.53792 55.9305 5.53792L57.4923 12.0028C57.4923 12.0028 54.878 12.0028 53.8653 12.0028ZM18.6291 0L13.6062 13.5609L13.059 10.8866C12.1303 7.80088 9.21848 4.44773 5.96893 2.7821L10.5685 19.94H15.9929L24.0536 0.00218926H18.6291V0Z" fill="#2394BC"/>
<path d="M11.372 2.57468C10.9806 1.05275 9.73221 0.0262991 8.0368 0.00439453H0.0819232L0 0.373706C6.20536 1.90352 11.4138 6.61082 13.1036 11.0386L11.372 2.57468Z" fill="#EFC75E"/>
</svg>
