<svg xmlns="http://www.w3.org/2000/svg" width="41" height="41" viewBox="0 0 41 41">
  <g id="Group_27208" data-name="Group 27208" transform="translate(-4235 -7547)">
    <circle id="Ellipse_1995" data-name="Ellipse 1995" cx="20.5" cy="20.5" r="20.5" transform="translate(4235 7547)" fill="#25d366"/>
    <g id="whatsapp_1_" data-name="whatsapp (1)" transform="translate(4246.538 7557.539)">
      <path id="Path_111772" data-name="Path 111772" d="M15.016,12.588l-.007.059c-1.724-.859-1.9-.974-2.127-.64-.154.231-.6.756-.74.911s-.274.165-.506.059a6.362,6.362,0,0,1-1.884-1.164,7.112,7.112,0,0,1-1.3-1.623c-.23-.4.251-.453.688-1.281a.431.431,0,0,0-.02-.411c-.059-.118-.527-1.27-.723-1.729s-.382-.4-.527-.4a1.167,1.167,0,0,0-1.072.27c-1.265,1.391-.946,2.825.136,4.351,2.128,2.785,3.261,3.3,5.334,4.009a3.243,3.243,0,0,0,1.474.095,2.413,2.413,0,0,0,1.58-1.118,1.94,1.94,0,0,0,.141-1.117c-.058-.106-.212-.165-.447-.27Z" transform="translate(-1.291 -1.373)" fill="#fff"/>
      <path id="Path_111773" data-name="Path 111773" d="M16.086,2.7A9.41,9.41,0,0,0,.079,9.323a9.279,9.279,0,0,0,1.25,4.661L0,18.814l4.966-1.3A9.384,9.384,0,0,0,18.815,9.328a9.246,9.246,0,0,0-2.74-6.594Zm1.162,6.6A7.805,7.805,0,0,1,5.48,15.969L5.2,15.8l-2.94.764.788-2.857-.187-.294a7.775,7.775,0,0,1,12.11-9.591,7.673,7.673,0,0,1,2.28,5.48Z" transform="translate(0 0)" fill="#fff"/>
    </g>
  </g>
</svg>
