<svg width="39" height="40" viewBox="0 0 39 40" fill="none" xmlns="http://www.w3.org/2000/svg">
<path fill-rule="evenodd" clip-rule="evenodd" d="M19.15 0.998047C22.9374 0.997849 26.6399 2.12076 29.7892 4.22478C32.9385 6.3288 35.3932 9.31943 36.8428 12.8185C38.2924 16.3176 38.6719 20.1679 37.9333 23.8827C37.1946 27.5974 35.3711 31.0097 32.6931 33.6881C30.0152 36.3664 26.6032 38.1906 22.8885 38.9298C19.1739 39.669 15.3235 39.2901 11.8242 37.841C8.32491 36.3919 5.33389 33.9377 3.22938 30.7888C1.12486 27.6398 0.00137223 23.9375 0.000976667 20.15C0.000714011 17.6351 0.495816 15.1448 1.45801 12.8213C2.42021 10.4977 3.83066 8.38645 5.60882 6.60801C7.38698 4.82957 9.49803 3.41879 11.8214 2.45623C14.1448 1.49367 16.6351 0.998178 19.15 0.998047Z" fill="#C4302B"/>
<path d="M18.687 16.56C19.202 16.572 19.7057 16.4072 20.114 16.093C20.2835 15.9589 20.4188 15.7864 20.5086 15.5898C20.5985 15.3931 20.6405 15.178 20.631 14.962V12.062C20.634 11.8572 20.5877 11.6547 20.496 11.4716C20.4043 11.2885 20.2698 11.1302 20.104 11.01C19.7103 10.7256 19.2322 10.5822 18.747 10.603C18.2365 10.5762 17.7305 10.7109 17.301 10.988C17.1308 11.102 16.9922 11.257 16.898 11.4388C16.8038 11.6206 16.757 11.8233 16.762 12.028V14.941C16.7538 15.159 16.7969 15.3758 16.8879 15.574C16.9789 15.7722 17.1153 15.9462 17.286 16.082C17.6823 16.4007 18.1775 16.5709 18.686 16.563L18.687 16.56ZM18.054 12.166C18.0556 12.1099 18.0723 12.0553 18.1024 12.0079C18.1325 11.9606 18.1749 11.9223 18.225 11.897C18.3617 11.8244 18.5154 11.7898 18.67 11.797C18.8359 11.7889 19.0011 11.8233 19.15 11.897C19.2024 11.9203 19.2473 11.9579 19.2795 12.0055C19.3116 12.053 19.3298 12.1086 19.332 12.166V14.926C19.3333 14.9908 19.3173 15.0548 19.2857 15.1114C19.254 15.168 19.2079 15.2152 19.152 15.248C19.0056 15.3318 18.8384 15.3721 18.67 15.364C18.5094 15.3745 18.3495 15.3343 18.213 15.249C18.1614 15.2129 18.1199 15.1644 18.0921 15.1079C18.0643 15.0514 18.0512 14.9889 18.054 14.926V12.167V12.166ZM22.694 16.556C22.9285 16.5277 23.153 16.444 23.349 16.312C23.5963 16.1704 23.8169 15.9866 24.001 15.769V16.414H25.132V10.591H24.001V15.011C23.9008 15.1314 23.7836 15.2365 23.653 15.323C23.5606 15.3916 23.4514 15.4341 23.337 15.446C23.294 15.4505 23.2505 15.4444 23.2104 15.4282C23.1703 15.412 23.1348 15.3862 23.107 15.353C23.0502 15.2638 23.0242 15.1584 23.033 15.053V10.593H21.904V15.458C21.8854 15.7324 21.9555 16.0055 22.104 16.237C22.1703 16.3329 22.2583 16.4118 22.3608 16.4674C22.4633 16.523 22.5774 16.5527 22.694 16.556ZM25.979 18.963H12.315C11.2919 18.9426 10.3025 19.3294 9.56447 20.0382C8.82639 20.747 8.39999 21.7199 8.37898 22.743V25.943C8.39973 26.9659 8.82575 27.9388 9.56341 28.6478C10.3011 29.3567 11.29 29.7438 12.313 29.724H25.979C27.0018 29.7436 27.9907 29.3564 28.7283 28.6475C29.4659 27.9385 29.892 26.9658 29.913 25.943V22.743C29.892 21.7203 29.4658 20.7477 28.7282 20.0389C27.9906 19.3302 27.0018 18.9432 25.979 18.963ZM14.348 22.207H13.14V27.212H11.97V22.207H10.762V21.354H14.349V22.207H14.348ZM17.956 27.28H16.696V26.761C16.4777 26.9444 16.2316 27.0919 15.967 27.198C15.7357 27.2962 15.4873 27.3479 15.236 27.35C14.9972 27.368 14.7609 27.2916 14.578 27.137C14.4997 27.0525 14.4396 26.9528 14.4016 26.844C14.3636 26.7353 14.3484 26.6199 14.357 26.505V22.554H15.617V26.18C15.6131 26.2234 15.618 26.2672 15.6312 26.3087C15.6444 26.3503 15.6658 26.3888 15.694 26.422C15.7683 26.4784 15.8611 26.5048 15.954 26.496C16.0771 26.488 16.1971 26.4539 16.306 26.396C16.4479 26.3307 16.5796 26.2452 16.697 26.142V22.553H17.957L17.956 27.28ZM22.727 26.38C22.7351 26.5131 22.7129 26.6463 22.6622 26.7696C22.6114 26.8929 22.5334 27.0032 22.434 27.092C22.1911 27.2732 21.8913 27.3612 21.589 27.34C21.3679 27.3437 21.1478 27.3116 20.937 27.245C20.7421 27.1793 20.5613 27.0775 20.404 26.945V27.28H19.145V21.353H20.403V23.264C20.5649 23.1378 20.7449 23.0367 20.937 22.964C21.1208 22.8966 21.3152 22.8628 21.511 22.864C21.8351 22.8417 22.1559 22.9408 22.411 23.142C22.5198 23.2475 22.6042 23.3754 22.6585 23.5168C22.7127 23.6583 22.7354 23.8099 22.725 23.961V26.38H22.727ZM27.522 25.046H25.199V25.901C25.1804 26.0762 25.222 26.2526 25.317 26.401C25.3719 26.452 25.4371 26.4907 25.5081 26.5144C25.5791 26.5382 25.6544 26.5466 25.729 26.539C25.88 26.5551 26.0316 26.5133 26.153 26.422C26.2541 26.2694 26.2973 26.0857 26.275 25.904V25.698H27.523V25.93C27.5371 26.129 27.5028 26.3285 27.4231 26.5113C27.3433 26.6942 27.2205 26.855 27.065 26.98C26.6611 27.2427 26.1825 27.3663 25.702 27.332C25.2436 27.3582 24.7901 27.2265 24.417 26.959C24.2632 26.8371 24.1406 26.6804 24.059 26.5019C23.9775 26.3234 23.9395 26.1281 23.948 25.932V23.891C23.9467 23.7002 23.9933 23.5121 24.0837 23.344C24.174 23.1759 24.3051 23.0332 24.465 22.929C24.8572 22.6679 25.3223 22.5383 25.793 22.559C26.2463 22.5301 26.6967 22.6506 27.075 22.902C27.2233 23.0185 27.3413 23.169 27.419 23.3408C27.4966 23.5127 27.5316 23.7007 27.521 23.889L27.522 25.046ZM13.672 16.572H15.099V13.094L16.761 8.18701H15.31L14.427 11.541H14.336L13.409 8.18701H11.969L13.669 13.251V16.573L13.672 16.572ZM20.925 23.55L20.66 23.593L20.403 23.726V26.452C20.4945 26.5185 20.5957 26.5704 20.703 26.606L21.003 26.653C21.1225 26.6633 21.2418 26.6303 21.339 26.56C21.3778 26.5209 21.4075 26.4738 21.4262 26.422C21.4448 26.3701 21.4519 26.3149 21.447 26.26V24.001C21.452 23.9388 21.4429 23.8763 21.4203 23.8182C21.3978 23.76 21.3625 23.7076 21.317 23.665C21.2038 23.5813 21.0644 23.5409 20.924 23.551L20.925 23.55Z" fill="white"/>
<path d="M25.797 23.3521C25.6471 23.3374 25.4974 23.3819 25.38 23.4761C25.3332 23.5323 25.2982 23.5972 25.2769 23.6671C25.2556 23.737 25.2485 23.8105 25.256 23.8831V24.3401H26.33V23.8831C26.3432 23.8103 26.3386 23.7354 26.3164 23.6648C26.2943 23.5941 26.2553 23.53 26.2029 23.4777C26.1504 23.4255 26.0861 23.3868 26.0154 23.3649C25.9447 23.343 25.8698 23.3386 25.797 23.3521Z" fill="white"/>
</svg>
